<svg width="75" height="75" viewBox="0 0 75 75" fill="none" xmlns="http://www.w3.org/2000/svg">
<path d="M53.5126 0H21.4873C18.4583 0 15.9941 2.46416 15.9941 5.49316V18.197C15.9941 18.8038 16.486 19.2957 17.0928 19.2957C17.6995 19.2957 18.1914 18.8038 18.1914 18.197V5.49316C18.1914 3.67573 19.6699 2.19727 21.4873 2.19727H28.1011V4.90723C28.1011 7.12852 29.9081 8.93555 32.1294 8.93555H42.8707C45.0918 8.93555 46.899 7.12852 46.899 4.90723V2.19727H53.5127C55.33 2.19727 56.8086 3.67573 56.8086 5.49316V69.5068C56.8086 71.3243 55.33 72.8027 53.5127 72.8027H21.4873C19.6699 72.8027 18.1914 71.3243 18.1914 69.5068V23.324C18.1914 22.7172 17.6995 22.2253 17.0928 22.2253C16.486 22.2253 15.9941 22.7172 15.9941 23.324V69.5068C15.9941 72.5358 18.4583 75 21.4873 75H53.5127C56.5418 75 59.0059 72.5358 59.0059 69.5068V5.49316C59.0058 2.46416 56.5416 0 53.5126 0ZM44.7016 4.90723C44.7016 5.91694 43.8802 6.73828 42.8705 6.73828H32.1292C31.1195 6.73828 30.2982 5.91694 30.2982 4.90723V2.19727H44.7016V4.90723ZM29.2236 36.9873H45.7763C46.3832 36.9873 46.875 36.4954 46.875 35.8887C46.875 35.2819 46.3832 34.79 45.7763 34.79H29.2236C28.6168 34.79 28.125 35.2819 28.125 35.8887C28.125 36.4954 28.6168 36.9873 29.2236 36.9873ZM33.6181 39.1846C33.0114 39.1846 32.5195 39.6765 32.5195 40.2832C32.5195 40.8899 33.0114 41.3818 33.6181 41.3818H41.3818C41.9887 41.3818 42.4804 40.8899 42.4804 40.2832C42.4804 39.6765 41.9887 39.1846 41.3818 39.1846H33.6181ZM22.5859 66.5771C22.5859 67.5869 23.4073 68.4082 24.417 68.4082H50.5831C51.5928 68.4082 52.4141 67.5869 52.4141 66.5771V59.9953C52.4141 58.9856 51.5928 58.1643 50.5831 58.1643H46.0999C45.493 58.1643 45.0013 58.6562 45.0013 59.2629C45.0013 59.8696 45.493 60.3615 46.0999 60.3615H50.2168V66.2109H24.7832V60.3615H40.9728C41.5797 60.3615 42.0714 59.8696 42.0714 59.2629C42.0714 58.6562 41.5797 58.1643 40.9728 58.1643H24.417C23.4073 58.1643 22.5859 58.9856 22.5859 59.9953V66.5771ZM22.5859 47.5542V54.1361C22.5859 55.1458 23.4073 55.9671 24.417 55.9671H50.5831C51.5928 55.9671 52.4141 55.1458 52.4141 54.1361V47.5542C52.4141 46.5445 51.5928 45.7232 50.5831 45.7232H24.417C23.4073 45.7232 22.5859 46.5445 22.5859 47.5542ZM24.7832 47.9205H50.2168V53.7699H24.7832V47.9205ZM37.1213 23.289C37.728 23.289 38.2199 22.7971 38.2199 22.1903C38.2199 21.5836 37.728 21.0917 37.1213 21.0917C36.5146 21.0917 36.0227 21.5836 36.0227 22.1903C36.0227 22.7971 36.5146 23.289 37.1213 23.289ZM37.5 32.0801C42.5525 32.0801 46.875 27.8483 46.875 22.7051C46.875 17.5356 42.6694 13.3301 37.5 13.3301C32.3305 13.3301 28.125 17.5356 28.125 22.7051C28.125 27.8495 32.3964 32.0801 37.5 32.0801ZM37.5 29.8828C35.5686 29.8828 33.8141 29.1146 32.5227 27.8694L33.7804 26.148L37.5147 29.8824C37.5098 29.8824 37.5049 29.8828 37.5 29.8828ZM40.1238 29.384L38.9056 28.166L40.2298 26.3544L42.0919 28.2167C41.5072 28.7046 40.8435 29.1003 40.1238 29.384ZM37.5 15.5273C41.4578 15.5273 44.6777 18.7472 44.6777 22.7051C44.6777 24.1251 44.2615 25.4489 43.5471 26.5644L41.3603 24.3775C41.0112 24.0286 40.5298 23.8494 40.0379 23.8885C39.5466 23.9268 39.0984 24.1774 38.8088 24.5748L37.3331 26.5935L34.9105 24.1709C34.5622 23.8226 34.0807 23.6445 33.5896 23.6826C33.0984 23.7205 32.6499 23.9704 32.3592 24.3683L31.1431 26.0326C30.62 25.0374 30.3222 23.9057 30.3222 22.7051C30.3222 18.7472 33.5421 15.5273 37.5 15.5273Z" fill="#D74427"/>
</svg>
