<svg width="75" height="75" viewBox="0 0 75 75" fill="none" xmlns="http://www.w3.org/2000/svg">
<g clip-path="url(#clip0_54_25)">
<path d="M57.2103 24.1613C54.5654 24.1613 52.4138 26.3129 52.4138 28.9577C52.4138 31.6026 54.5654 33.7542 57.2103 33.7542C59.8551 33.7542 62.0067 31.6026 62.0067 28.9577C62.0067 26.3129 59.8551 24.1613 57.2103 24.1613ZM57.2103 31.8865C55.5954 31.8865 54.2815 30.5726 54.2815 28.9577C54.2815 27.3428 55.5954 26.029 57.2103 26.029C58.8252 26.029 60.139 27.3428 60.139 28.9577C60.139 30.5726 58.8253 31.8865 57.2103 31.8865Z" fill="#D74427"/>
<path d="M57.2105 30.25C57.9242 30.25 58.5028 29.6714 58.5028 28.9577C58.5028 28.244 57.9242 27.6654 57.2105 27.6654C56.4968 27.6654 55.9182 28.244 55.9182 28.9577C55.9182 29.6714 56.4968 30.25 57.2105 30.25Z" fill="#D74427"/>
<path d="M11.3409 55.167C8.69604 55.167 6.54443 57.3186 6.54443 59.9635C6.54443 62.6083 8.69604 64.7599 11.3409 64.7599C13.9858 64.7599 16.1374 62.6083 16.1374 59.9635C16.1374 57.3186 13.9858 55.167 11.3409 55.167ZM11.3409 62.8922C9.726 62.8922 8.41215 61.5784 8.41215 59.9635C8.41215 58.3486 9.726 57.0347 11.3409 57.0347C12.9558 57.0347 14.2696 58.3486 14.2696 59.9635C14.2696 61.5784 12.956 62.8922 11.3409 62.8922Z" fill="#D74427"/>
<path d="M11.3409 61.2558C12.0546 61.2558 12.6332 60.6773 12.6332 59.9636C12.6332 59.2498 12.0546 58.6713 11.3409 58.6713C10.6272 58.6713 10.0486 59.2498 10.0486 59.9636C10.0486 60.6773 10.6272 61.2558 11.3409 61.2558Z" fill="#D74427"/>
<path d="M24.6363 5.57593C21.9915 5.57593 19.8398 7.72754 19.8398 10.3724C19.8398 13.0172 21.9915 15.1689 24.6363 15.1689C27.2812 15.1689 29.4328 13.0172 29.4328 10.3724C29.4328 7.72754 27.2812 5.57593 24.6363 5.57593ZM24.6363 13.3011C23.0214 13.3011 21.7076 11.9873 21.7076 10.3724C21.7076 8.7575 23.0214 7.44364 24.6363 7.44364C26.2512 7.44364 27.5651 8.7575 27.5651 10.3724C27.5651 11.9873 26.2512 13.3011 24.6363 13.3011Z" fill="#D74427"/>
<path d="M24.6363 11.6647C25.35 11.6647 25.9286 11.0861 25.9286 10.3724C25.9286 9.65866 25.35 9.08008 24.6363 9.08008C23.9226 9.08008 23.344 9.65866 23.344 10.3724C23.344 11.0861 23.9226 11.6647 24.6363 11.6647Z" fill="#D74427"/>
<path d="M45.861 54.5167H36.1907C35.6749 54.5167 35.2568 54.9348 35.2568 55.4506C35.2568 55.9664 35.6749 56.3844 36.1907 56.3844H45.861C46.3769 56.3844 46.7949 55.9664 46.7949 55.4506C46.7949 54.9348 46.3767 54.5167 45.861 54.5167Z" fill="#D74427"/>
<path d="M45.861 59.1504H36.1907C35.6749 59.1504 35.2568 59.5684 35.2568 60.0842C35.2568 60.6001 35.6749 61.0181 36.1907 61.0181H45.861C46.3769 61.0181 46.7949 60.6001 46.7949 60.0842C46.7949 59.5684 46.3767 59.1504 45.861 59.1504Z" fill="#D74427"/>
<path d="M45.861 63.7842H36.1907C35.6749 63.7842 35.2568 64.2022 35.2568 64.718C35.2568 65.2339 35.6749 65.6519 36.1907 65.6519H45.861C46.3769 65.6519 46.7949 65.2339 46.7949 64.718C46.7949 64.2022 46.3767 63.7842 45.861 63.7842Z" fill="#D74427"/>
<path d="M72.4959 21.2748H64.3223V15.2096C64.3223 14.9619 64.2238 14.7243 64.0487 14.5493L50.6974 1.20005C50.5224 1.02499 50.2849 0.926514 50.0371 0.926514H16.4468C15.9309 0.926514 15.5129 1.34454 15.5129 1.86037V45.8536H0.933858C0.418029 45.8536 0 46.2716 0 46.7874V73.1394C0 73.6552 0.418029 74.0732 0.933858 74.0732H53.1136C53.6294 74.0732 54.0475 73.6552 54.0475 73.1394V66.8606H63.3884C63.9042 66.8606 64.3223 66.4426 64.3223 65.9268V36.6408H72.4959C73.8766 36.6408 75 35.5175 75 34.1367V23.779C75 22.3981 73.8768 21.2748 72.4959 21.2748ZM50.9712 4.1147L61.1337 14.2758H50.9712V4.1147ZM52.1797 72.2057H1.86772V47.7213H52.1797V72.2057ZM62.4546 64.9929H54.0475V46.7874C54.0475 46.2716 53.6294 45.8536 53.1136 45.8536H17.3806V2.79423H49.1034V15.2096C49.1034 15.7254 49.5215 16.1435 50.0373 16.1435H62.4546V21.2748H52.0648C50.684 21.2748 49.5607 22.3981 49.5607 23.7789V34.1365C49.5607 35.5173 50.684 36.6406 52.0648 36.6406H62.4546V64.9929ZM73.1323 34.1367C73.1323 34.4877 72.8469 34.7731 72.4959 34.7731H52.0648C51.7138 34.7731 51.4284 34.4877 51.4284 34.1367V23.779C51.4284 23.4281 51.7138 23.1427 52.0648 23.1427H72.4959C72.8469 23.1427 73.1323 23.4281 73.1323 23.779V34.1367Z" fill="#D74427"/>
<path d="M70.0368 26.4122H63.9927C63.4769 26.4122 63.0588 26.8303 63.0588 27.3461C63.0588 27.8619 63.4769 28.2799 63.9927 28.2799H70.0368C70.5526 28.2799 70.9706 27.8619 70.9706 27.3461C70.9706 26.8303 70.5526 26.4122 70.0368 26.4122Z" fill="#D74427"/>
<path d="M70.0368 29.6355H63.9927C63.4769 29.6355 63.0588 30.0535 63.0588 30.5694C63.0588 31.0852 63.4769 31.5032 63.9927 31.5032H70.0368C70.5526 31.5032 70.9706 31.0852 70.9706 30.5694C70.9706 30.0535 70.5526 29.6355 70.0368 29.6355Z" fill="#D74427"/>
<path d="M9.34977 44.2224C9.46319 44.6248 9.83045 44.9028 10.2485 44.9028C10.6665 44.9028 11.0338 44.6248 11.1472 44.2224L12.8451 38.2005C12.8684 38.118 12.8803 38.0328 12.8803 37.947V6.27517C12.8803 5.75934 12.4622 5.34131 11.9464 5.34131H8.55056C8.03473 5.34131 7.6167 5.75934 7.6167 6.27517V37.9472C7.6167 38.033 7.62841 38.1182 7.65185 38.2007L9.34977 44.2224ZM9.78427 38.8811H10.7129L10.2485 40.5279L9.78427 38.8811ZM11.0125 7.20902V37.0134H9.48442V7.20902H11.0125Z" fill="#D74427"/>
<path d="M0.933858 44.9029H4.32971C4.84553 44.9029 5.26356 44.4849 5.26356 43.9691V12.297C5.26356 12.2113 5.25185 12.126 5.22842 12.0435L3.53049 6.02167C3.41707 5.61926 3.04981 5.34131 2.63178 5.34131C2.21375 5.34131 1.84649 5.61926 1.73307 6.02167L0.035147 12.0435C0.0117157 12.126 0 12.2113 0 12.297V43.9691C0 44.4847 0.418029 44.9029 0.933858 44.9029ZM1.86772 43.0352V13.2309H3.39585V43.0352H1.86772ZM3.09616 11.3632H2.1674L2.63178 9.71635L3.09616 11.3632Z" fill="#D74427"/>
</g>
<defs>
<clipPath id="clip0_54_25">
<rect width="75" height="75" fill="white"/>
</clipPath>
</defs>
</svg>
