<svg width="75" height="75" viewBox="0 0 75 75" fill="none" xmlns="http://www.w3.org/2000/svg">
<g clip-path="url(#clip0_54_54)">
<path d="M37.5 64.2872C52.2705 64.2872 64.2872 52.2705 64.2872 37.5C64.2872 22.7295 52.2705 10.7128 37.5 10.7128C22.7295 10.7128 10.7128 22.7295 10.7128 37.5C10.7128 52.2705 22.7295 64.2872 37.5 64.2872ZM37.5 12.9101C51.0589 12.9101 62.0899 23.9411 62.0899 37.5C62.0899 51.0589 51.0589 62.0899 37.5 62.0899C23.9411 62.0899 12.9101 51.0589 12.9101 37.5C12.9101 23.9411 23.9411 12.9101 37.5 12.9101ZM70.6787 66.3574C68.6755 66.3574 66.9867 67.7276 66.4994 69.5801H60.0286C59.4218 69.5801 58.9299 70.0718 58.9299 70.6787C58.9299 71.2856 59.4218 71.7773 60.0286 71.7773H66.4994C66.9867 73.6298 68.6755 75 70.6787 75C73.0614 75 75 73.0616 75 70.6787C75 68.2959 73.0614 66.3574 70.6787 66.3574ZM70.6787 72.8027C69.5076 72.8027 68.5547 71.8499 68.5547 70.6787C68.5547 69.5076 69.5076 68.5547 70.6787 68.5547C71.8499 68.5547 72.8027 69.5076 72.8027 70.6787C72.8027 71.8499 71.8499 72.8027 70.6787 72.8027ZM40.3792 43.3658C43.449 43.3658 45.593 40.9537 45.593 37.5C45.593 36.8931 45.1011 36.4014 44.4943 36.4014H41.6421C41.0354 36.4014 40.5435 36.8931 40.5435 37.5C40.5435 38.1069 41.0354 38.5986 41.6421 38.5986H43.2817C42.9938 39.9448 42.1312 41.1686 40.379 41.1686C38.3562 41.1686 36.7106 39.5229 36.7106 37.5C36.7106 35.4771 38.3562 33.8314 40.379 33.8314C41.1142 33.8314 41.823 34.048 42.4293 34.4574C42.9321 34.7968 43.6151 34.6648 43.9547 34.1619C44.2944 33.6592 44.1621 32.9763 43.6592 32.6366C42.6885 31.9806 41.5541 31.634 40.3789 31.634C37.1445 31.634 34.5132 34.2655 34.5132 37.4999C34.5132 40.7342 37.1448 43.3658 40.3792 43.3658ZM52.599 43.3658C55.8334 43.3658 58.4647 40.7344 58.4647 37.5C58.4647 34.2656 55.8334 31.6342 52.599 31.6342C49.3646 31.6342 46.7332 34.2656 46.7332 37.5C46.7332 40.7344 49.3646 43.3658 52.599 43.3658ZM52.599 33.8314C54.6218 33.8314 56.2674 35.4771 56.2674 37.5C56.2674 39.5229 54.6218 41.1686 52.599 41.1686C50.5762 41.1686 48.9305 39.5229 48.9305 37.5C48.9305 35.4771 50.5762 33.8314 52.599 33.8314ZM27.5074 43.3658C30.7418 43.3658 33.3731 40.7344 33.3731 37.5C33.3731 34.2656 30.7418 31.6342 27.5074 31.6342C24.273 31.6342 21.6416 34.2656 21.6416 37.5C21.6416 40.7344 24.273 43.3658 27.5074 43.3658ZM27.5074 33.8314C29.5302 33.8314 31.1758 35.4771 31.1758 37.5C31.1758 39.5229 29.5302 41.1686 27.5074 41.1686C25.4846 41.1686 23.8389 39.5229 23.8389 37.5C23.8389 35.4771 25.4846 33.8314 27.5074 33.8314ZM54.9016 69.5801H49.5932C54.5987 67.6936 59.1335 64.6412 62.8165 60.6089C68.595 54.282 71.7773 46.0751 71.7773 37.5C71.7773 28.925 68.595 20.718 62.8165 14.3911C59.1335 10.3586 54.5987 7.30635 49.5932 5.41992H66.4994C66.9867 7.27236 68.6755 8.64258 70.6787 8.64258C73.0614 8.64258 75 6.70415 75 4.32129C75 1.93843 73.0614 0 70.6787 0C68.6755 0 66.9867 1.37021 66.4994 3.22266H41.8213V1.83105C41.8213 0.821338 41 0 39.9902 0H35.0098C34 0 33.1787 0.821338 33.1787 1.83105V3.22266H8.50063C8.01328 1.37021 6.32446 0 4.32129 0C1.93857 0 0 1.93843 0 4.32129C0 6.70415 1.93857 8.64258 4.32129 8.64258C6.32446 8.64258 8.01328 7.27236 8.50063 5.41992H25.4013C22.0329 6.69023 18.8685 8.49346 16.0195 10.7871C15.5468 11.1677 15.4723 11.8591 15.8527 12.3318C16.235 12.8067 16.9276 12.8767 17.3974 12.4986C21.9659 8.82056 27.3996 6.48706 33.1787 5.70952V6.81152C33.1787 7.82124 34 8.64258 35.0098 8.64258H39.9902C41 8.64258 41.8213 7.82124 41.8213 6.81152V5.71113C49.2539 6.71221 56.0952 10.2902 61.194 15.8729C66.6018 21.7939 69.5801 29.4746 69.5801 37.5C69.5801 45.5254 66.6018 53.2061 61.194 59.1271C56.0952 64.7098 49.2539 68.2878 41.8213 69.2889V68.1885C41.8213 67.1788 41 66.3574 39.9902 66.3574H35.0098C34 66.3574 33.1787 67.1788 33.1787 68.1885V69.2889C25.7461 68.2878 18.9048 64.7098 13.806 59.1271C8.39824 53.2061 5.41992 45.5254 5.41992 37.5C5.41992 29.4627 8.40601 21.7736 13.8278 15.8489C14.2374 15.4012 14.2066 14.7063 13.7591 14.2966C13.3115 13.8872 12.6166 13.9179 12.207 14.3654C6.41338 20.6962 3.22266 28.9122 3.22266 37.5C3.22266 46.0751 6.40503 54.282 12.1835 60.6089C15.8665 64.6414 20.4013 67.6936 25.4068 69.5801H8.50063C8.01328 67.7276 6.32446 66.3574 4.32129 66.3574C1.93857 66.3574 0 68.2959 0 70.6787C0 73.0616 1.93857 75 4.32129 75C6.32446 75 8.01328 73.6298 8.50063 71.7773H33.1787V73.1689C33.1787 74.1787 34 75 35.0098 75H39.9902C41 75 41.8213 74.1787 41.8213 73.1689V71.7773H54.9016C55.5084 71.7773 56.0002 71.2856 56.0002 70.6787C56.0002 70.0718 55.5084 69.5801 54.9016 69.5801ZM70.6787 2.19727C71.8499 2.19727 72.8027 3.15015 72.8027 4.32129C72.8027 5.49243 71.8499 6.44531 70.6787 6.44531C69.5076 6.44531 68.5547 5.49243 68.5547 4.32129C68.5547 3.15015 69.5076 2.19727 70.6787 2.19727ZM4.32129 6.44531C3.15015 6.44531 2.19727 5.49243 2.19727 4.32129C2.19727 3.15015 3.15015 2.19727 4.32129 2.19727C5.49243 2.19727 6.44531 3.15015 6.44531 4.32129C6.44531 5.49243 5.49243 6.44531 4.32129 6.44531ZM39.624 6.44531H35.376V2.19727H39.624V6.44531ZM4.32129 72.8027C3.15015 72.8027 2.19727 71.8499 2.19727 70.6787C2.19727 69.5076 3.15015 68.5547 4.32129 68.5547C5.49243 68.5547 6.44531 69.5076 6.44531 70.6787C6.44531 71.8499 5.49243 72.8027 4.32129 72.8027ZM39.624 72.8027H35.376V68.5547H39.624V72.8027ZM17.4472 43.3417C17.526 43.3553 17.5898 43.3663 18.6457 43.3663C19.155 43.3663 19.8951 43.3636 20.9786 43.3576C21.5854 43.3542 22.0745 42.8596 22.0711 42.2528C22.0677 41.6481 21.5766 41.1604 20.9726 41.1604H20.9663C20.1935 41.1646 19.3638 41.1678 18.7324 41.1684V32.7328C18.7324 32.1259 18.2405 31.6342 17.6338 31.6342C17.0271 31.6342 16.5352 32.1259 16.5352 32.7328V42.259C16.5353 42.7938 16.9203 43.2508 17.4472 43.3417Z" fill="#D74427"/>
</g>
<defs>
<clipPath id="clip0_54_54">
<rect width="75" height="75" fill="white"/>
</clipPath>
</defs>
</svg>
