<svg width="76" height="76" viewBox="0 0 76 76" fill="none" xmlns="http://www.w3.org/2000/svg">
<g clip-path="url(#clip0_54_13)">
<path d="M57.2769 45.7972V15.7371C57.2769 14.3243 56.1274 13.1748 54.7146 13.1748H17.4041C15.9913 13.1748 14.8418 14.3243 14.8418 15.7371V45.797C14.8418 47.2099 15.9913 48.3593 17.4041 48.3593H54.7146C56.1274 48.3595 57.2769 47.21 57.2769 45.7972ZM17.038 45.7972V34.0613L22.8529 28.2463C22.946 28.153 23.055 28.1391 23.1117 28.1391C23.1684 28.1391 23.2771 28.153 23.3706 28.2463L24.6218 29.4976C25.0504 29.9265 25.7458 29.9263 26.1749 29.4976C26.6036 29.0687 26.6036 28.3734 26.1747 27.9445L24.9236 26.6934C24.4397 26.2094 23.7962 25.9428 23.1119 25.9428C22.4273 25.9428 21.784 26.2093 21.3 26.6933L17.0383 30.9551V15.7371C17.0383 15.5353 17.2025 15.371 17.4044 15.371H54.7148C54.9167 15.371 55.0809 15.5353 55.0809 15.7371V45.797C55.0809 45.9989 54.9167 46.1631 54.7148 46.1631H53.6436L39.9618 32.4812C38.9626 31.4824 37.3373 31.4824 36.3381 32.4813L33.5251 35.2944L29.6742 31.4435C29.2455 31.0146 28.5502 31.0146 28.121 31.4435C27.6923 31.8722 27.6923 32.5676 28.121 32.9965L32.231 37.1064C32.5767 37.452 33.0363 37.6424 33.5251 37.6424C34.014 37.6424 34.4738 37.452 34.8193 37.1063L37.8913 34.0343C38.0339 33.8917 38.2661 33.8917 38.4089 34.0343L50.5375 46.1631H17.4041C17.2022 46.1631 17.038 45.9989 17.038 45.7972Z" fill="#D74427"/>
<path d="M64.6479 54.1722V40.1086C64.6479 39.5022 64.1563 39.0105 63.5498 39.0105C62.9432 39.0105 62.4516 39.502 62.4516 40.1086V52.5163C60.6117 51.4268 58.4676 50.7986 56.1787 50.7986C49.8918 50.7986 44.6908 55.5214 43.928 61.6049H10.7651C10.1596 61.6049 9.66694 61.1123 9.66694 60.5067V3.79443C9.66694 3.18887 10.1596 2.69624 10.7651 2.69624H61.3534C61.9589 2.69624 62.4516 3.18887 62.4516 3.79443V34.6379C62.4516 35.2443 62.9432 35.7361 63.5498 35.7361C64.1563 35.7361 64.6479 35.2445 64.6479 34.6379V3.79443C64.6479 1.97788 63.1701 0.5 61.3535 0.5H10.7651C8.94858 0.5 7.4707 1.97788 7.4707 3.79443V60.5067C7.4707 62.3233 8.94858 63.8012 10.7651 63.8012H43.847C43.9648 66.066 44.6937 68.2358 45.9766 70.1123C46.3189 70.613 47.0024 70.7412 47.5028 70.3991C48.0035 70.0568 48.132 69.3734 47.7896 68.8728C46.6348 67.1835 46.0244 65.2043 46.0244 63.1493C46.0244 57.5501 50.5796 52.995 56.1787 52.995C61.7777 52.995 66.333 57.5502 66.333 63.1493C66.333 68.7484 61.7777 73.3038 56.1787 73.3038C54.5095 73.3038 52.8549 72.8904 51.3939 72.1083C50.8591 71.8222 50.1936 72.0236 49.9075 72.5582C49.6213 73.0928 49.8227 73.7583 50.3575 74.0445C52.1361 74.9967 54.1491 75.4999 56.1787 75.4999C62.9889 75.4999 68.5293 69.9594 68.5293 63.1492C68.5293 59.6152 67.0351 56.4255 64.6479 54.1722Z" fill="#D74427"/>
<path d="M56.1787 57.4984C55.5721 57.4984 55.0805 57.99 55.0805 58.5966V62.0828H51.5943C50.9877 62.0828 50.4961 62.5744 50.4961 63.181C50.4961 63.7876 50.9877 64.2792 51.5943 64.2792H55.0805V67.7654C55.0805 68.3718 55.5721 68.8635 56.1787 68.8635C56.7853 68.8635 57.2769 68.3719 57.2769 67.7654V64.2792H60.763C61.3696 64.2792 61.8612 63.7876 61.8612 63.181C61.8612 62.5744 61.3696 62.0828 60.763 62.0828H57.2769V58.5966C57.2767 57.9902 56.7851 57.4984 56.1787 57.4984Z" fill="#D74427"/>
<path d="M19.0095 53.6587C19.0936 52.8134 18.4765 52.06 17.6313 51.9758C16.786 51.8917 16.0325 52.5088 15.9484 53.3541C15.8643 54.1994 16.4814 54.9528 17.3267 55.0369C18.172 55.121 18.9254 54.504 19.0095 53.6587Z" fill="#D74427"/>
<path d="M24.448 53.6593C24.5321 52.814 23.915 52.0606 23.0697 51.9765C22.2244 51.8923 21.471 52.5094 21.3869 53.3547C21.3028 54.2 21.9199 54.9534 22.7652 55.0375C23.6105 55.1216 24.3639 54.5046 24.448 53.6593Z" fill="#D74427"/>
<path d="M29.886 53.66C29.9701 52.8147 29.353 52.0613 28.5077 51.9772C27.6624 51.8931 26.909 52.5101 26.8249 53.3554C26.7408 54.2007 27.3579 54.9542 28.2031 55.0383C29.0484 55.1224 29.8019 54.5053 29.886 53.66Z" fill="#D74427"/>
<path d="M40.283 9.62815C40.8896 9.62815 41.3812 9.13655 41.3812 8.52996C41.3812 7.92336 40.8896 7.43176 40.283 7.43176H35.5247C34.9181 7.43176 34.4265 7.92336 34.4265 8.52996C34.4265 9.13655 34.9181 9.62815 35.5247 9.62815H40.283Z" fill="#D74427"/>
<path d="M29.8879 9.62815C30.4945 9.62815 30.9861 9.13655 30.9861 8.52996C30.9861 7.92336 30.4945 7.43176 29.8879 7.43176H16.8924C16.2858 7.43176 15.7942 7.92336 15.7942 8.52996C15.7942 9.13655 16.2858 9.62815 16.8924 9.62815H29.8879Z" fill="#D74427"/>
<path d="M45.3619 28.5781C47.5065 28.5781 49.2513 26.8333 49.2513 24.6886C49.2513 22.544 47.5065 20.7992 45.3619 20.7992C43.2172 20.7992 41.4724 22.544 41.4724 24.6886C41.4724 26.8333 43.2172 28.5781 45.3619 28.5781ZM45.3619 22.9956C46.2954 22.9956 47.0549 23.7551 47.0549 24.6886C47.0549 25.6222 46.2954 26.3817 45.3619 26.3817C44.4283 26.3817 43.6688 25.6222 43.6688 24.6886C43.6687 23.7552 44.4283 22.9956 45.3619 22.9956Z" fill="#D74427"/>
</g>
<defs>
<clipPath id="clip0_54_13">
<rect width="75" height="75" fill="white" transform="translate(0.5 0.5)"/>
</clipPath>
</defs>
</svg>
