<svg width="75" height="75" viewBox="0 0 75 75" fill="none" xmlns="http://www.w3.org/2000/svg">
<g clip-path="url(#clip0_54_58)">
<path d="M25.7284 21.6725H22.6239C21.4857 21.6725 20.5599 22.5984 20.5599 23.7367V26.841C20.5483 28.0695 21.761 29.0744 23.0776 28.9052V29.2714C23.0776 29.8783 23.5695 30.3701 24.1763 30.3701C24.783 30.3701 25.2749 29.8783 25.2749 29.2714V28.9052C26.725 29.105 27.9841 27.8921 27.7926 26.3874H28.1588C28.7656 26.3874 29.2575 25.8956 29.2575 25.2887C29.2575 24.6818 28.7656 24.19 28.1588 24.19H27.7926C27.97 23.0249 27.0779 21.6783 25.7284 21.6725ZM25.5951 26.7079H22.7571V23.8698H25.5951V26.7079Z" fill="#D74427"/>
<path d="M41.3425 26.3873H42.8074C43.4141 26.3873 43.906 25.8956 43.906 25.2887C43.906 24.6818 43.4141 24.1901 42.8074 24.1901H41.3425C40.7358 24.1901 40.2439 24.6818 40.2439 25.2887C40.2439 25.8956 40.7358 26.3873 41.3425 26.3873Z" fill="#D74427"/>
<path d="M34.0181 26.3873H35.4829C36.0896 26.3873 36.5815 25.8956 36.5815 25.2887C36.5815 24.6818 36.0896 24.1901 35.4829 24.1901H34.0181C33.4113 24.1901 32.9194 24.6818 32.9194 25.2887C32.9194 25.8956 33.4113 26.3873 34.0181 26.3873Z" fill="#D74427"/>
<path d="M20.5597 55.2828C20.5597 56.421 21.4857 57.347 22.6237 57.347H25.7283C26.9567 57.3586 27.9615 56.1458 27.7923 54.8291H28.1585C28.7653 54.8291 29.2572 54.3374 29.2572 53.7305C29.2572 53.1236 28.7653 52.6318 28.1585 52.6318H27.7923C27.9921 51.1817 26.7793 49.9227 25.2746 50.1141V49.7797C25.2746 49.1728 24.7827 48.681 24.1759 48.681C23.5692 48.681 23.0773 49.1728 23.0773 49.7797V50.1141C21.912 49.9366 20.5654 50.8288 20.5596 52.1783L20.5597 55.2828ZM22.757 52.3116H25.5951V55.1497H22.757V52.3116Z" fill="#D74427"/>
<path d="M47.3252 55.2828C47.3252 56.421 48.2511 57.347 49.3894 57.347H52.4937C53.632 57.347 54.5579 56.421 54.5579 55.2828V52.1784C54.5695 50.9501 53.3567 49.9451 52.0402 50.1142V49.7798C52.0402 49.1729 51.5483 48.6812 50.9416 48.6812C50.3348 48.6812 49.8429 49.1729 49.8429 49.7798V50.1142C48.6776 49.9367 47.3311 50.829 47.3252 52.1784V55.2828ZM49.5225 52.3116H52.3606V55.1496H49.5225V52.3116Z" fill="#D74427"/>
<path d="M41.3425 54.8292H42.8074C43.4141 54.8292 43.906 54.3375 43.906 53.7306C43.906 53.1237 43.4141 52.632 42.8074 52.632H41.3425C40.7358 52.632 40.2439 53.1237 40.2439 53.7306C40.2439 54.3375 40.7358 54.8292 41.3425 54.8292Z" fill="#D74427"/>
<path d="M34.0181 54.8292H35.4829C36.0896 54.8292 36.5815 54.3375 36.5815 53.7306C36.5815 53.1237 36.0896 52.632 35.4829 52.632H34.0181C33.4113 52.632 32.9194 53.1237 32.9194 53.7306C32.9194 54.3375 33.4113 54.8292 34.0181 54.8292Z" fill="#D74427"/>
<path d="M24.176 41.3568C23.5693 41.3568 23.0774 41.8486 23.0774 42.4554V43.9203C23.0774 44.5272 23.5693 45.0189 24.176 45.0189C24.7828 45.0189 25.2747 44.5272 25.2747 43.9203V42.4554C25.2747 41.8486 24.7828 41.3568 24.176 41.3568Z" fill="#D74427"/>
<path d="M25.2747 35.131C25.2747 34.5241 24.7828 34.0323 24.176 34.0323C23.5693 34.0323 23.0774 34.5241 23.0774 35.131V36.5958C23.0774 37.2027 23.5693 37.6945 24.176 37.6945C24.7828 37.6945 25.2747 37.2027 25.2747 36.5958V35.131Z" fill="#D74427"/>
<path d="M52.04 35.131C52.04 34.5241 51.5481 34.0323 50.9414 34.0323C50.3347 34.0323 49.8428 34.5241 49.8428 35.131V36.5958C49.8428 37.2027 50.3347 37.6945 50.9414 37.6945C51.5481 37.6945 52.04 37.2027 52.04 36.5958V35.131Z" fill="#D74427"/>
<path d="M50.9414 41.3568C50.3347 41.3568 49.8428 41.8486 49.8428 42.4554V43.9203C49.8428 44.5272 50.3347 45.0189 50.9414 45.0189C51.5481 45.0189 52.04 44.5272 52.04 43.9203V42.4554C52.04 41.8486 51.5481 41.3568 50.9414 41.3568Z" fill="#D74427"/>
<path d="M52.0401 28.9052C53.2054 29.0827 54.5519 28.1905 54.5577 26.841V23.7367C54.5577 22.5984 53.6318 21.6725 52.4936 21.6725H49.3892C48.251 21.6725 47.325 22.5984 47.325 23.7367V26.841C47.3135 28.0693 48.5261 29.0744 49.8427 28.9052V29.2714C49.8427 29.8783 50.3346 30.3701 50.9414 30.3701C51.5481 30.3701 52.0401 29.8783 52.0401 29.2714V28.9052ZM49.5224 23.8698H52.3604V26.7079H49.5224V23.8698Z" fill="#D74427"/>
<path d="M74.937 26.8395L72.5451 16.4112C71.515 11.9197 68.535 8.2134 64.369 6.24284C64.2628 6.20079 61.3128 4.78118 61.1474 4.72815L48.1853 0.435304C48.123 0.422853 48.0666 0.389746 47.8399 0.379639H27.1601C27.089 0.38916 27.0457 0.370263 26.8147 0.435304L13.8525 4.72815C7.47996 7.34209 3.92747 10.4826 2.45483 16.4112L0.0629641 26.8395C-0.240853 28.1644 0.584316 29.5118 1.90242 29.8434L13.0993 32.6591V61.3947C13.0993 62.0016 13.5912 62.4933 14.1979 62.4933C14.8047 62.4933 15.2966 62.0016 15.2966 61.3947V6.56467L26.0815 2.99285C26.3201 8.41116 31.0999 12.9482 36.5591 12.8651H38.4413C43.871 12.9224 48.6303 8.53421 48.9176 2.99255L59.7032 6.56467V71.6665C59.7032 72.0835 59.3639 72.4228 58.9469 72.4228H16.0529C15.6358 72.4228 15.2966 72.0835 15.2966 71.6665V66.5732C15.2966 65.9663 14.8047 65.4745 14.1979 65.4745C13.5912 65.4745 13.0993 65.9663 13.0993 66.5732V71.6665C13.0993 73.2951 14.4242 74.6201 16.0529 74.6201H58.9469C60.5756 74.6201 61.9005 73.2951 61.9005 71.6665V7.50615C66.3148 9.27046 69.3795 12.4651 70.4033 16.9025L72.7952 27.3309C72.8337 27.4992 72.729 27.6704 72.5615 27.7125L66.022 29.3569C65.4335 29.5049 65.0764 30.1018 65.2245 30.6904C65.3725 31.279 65.9693 31.6359 66.558 31.4879L73.0977 29.8434C74.4156 29.5119 75.2408 28.1644 74.937 26.8395ZM2.43842 27.7125C2.27084 27.6704 2.1661 27.4992 2.20462 27.3309L4.59649 16.9025C5.51775 12.4914 8.95085 9.11884 13.0993 7.50615V30.3935L2.43842 27.7125ZM38.4415 10.668H36.5592C32.1448 10.7296 28.361 7.05746 28.261 2.5774H46.7383C46.7003 2.73341 46.8138 3.16556 46.4164 4.67219H33.1441C32.5374 4.67219 32.0455 5.16395 32.0455 5.77085C32.0455 6.37775 32.5374 6.86951 33.1441 6.86951H45.4194C43.915 9.21889 41.3232 10.668 38.4415 10.668Z" fill="#D74427"/>
</g>
<defs>
<clipPath id="clip0_54_58">
<rect width="75" height="75" fill="white"/>
</clipPath>
</defs>
</svg>
