<svg width="75" height="75" viewBox="0 0 75 75" fill="none" xmlns="http://www.w3.org/2000/svg">
<g clip-path="url(#clip0_54_74)">
<path d="M49.9186 5.99146H30.7872C30.1712 5.99146 29.6721 6.49053 29.6721 7.10649C29.6721 7.72246 30.1713 8.22153 30.7872 8.22153H49.9185C50.5344 8.22153 51.0336 7.72246 51.0336 7.10649C51.0336 6.49053 50.5344 5.99146 49.9186 5.99146Z" fill="#D74427"/>
<path d="M39.3068 10.7433H30.7872C30.1712 10.7433 29.6721 11.2425 29.6721 11.8583C29.6721 12.4743 30.1713 12.9734 30.7872 12.9734H39.3068C39.9228 12.9734 40.4219 12.4743 40.4219 11.8583C40.4219 11.2424 39.9227 10.7433 39.3068 10.7433Z" fill="#D74427"/>
<path d="M70.1857 10.9378C69.5699 10.9378 69.0707 11.4369 69.0707 12.0529C69.0707 12.6687 69.5698 13.1679 70.1857 13.1679C71.2828 13.1679 72.1751 14.0603 72.1751 15.1573V46.8394H64.0374V13.1678H65.8957C66.5115 13.1678 67.0107 12.6687 67.0107 12.0527C67.0107 11.4369 66.5116 10.9377 65.8957 10.9377H64.0374V3.35024C64.0374 1.50293 62.5344 0 60.6871 0H14.0159C12.1686 0 10.6656 1.50293 10.6656 3.35024V10.9378H4.81445C2.48784 10.9378 0.594971 12.8307 0.594971 15.1573V47.9544V58.2293C0.594971 60.5559 2.48784 62.4488 4.81445 62.4488H11.6813C12.2972 62.4488 12.7964 61.9497 12.7964 61.3337C12.7964 60.7179 12.2973 60.2187 11.6813 60.2187H4.81445C3.71743 60.2187 2.82505 59.3263 2.82505 58.2293V49.0693H11.7805H62.9222H72.175V58.2293C72.175 59.3263 71.2826 60.2187 70.1856 60.2187H45.5241H29.4761H16.9344C16.3186 60.2187 15.8194 60.7178 15.8194 61.3337C15.8194 61.9496 16.3185 62.4488 16.9344 62.4488H28.3611V68.3574C25.3579 68.411 22.9306 70.8691 22.9306 73.885C22.9306 74.5008 23.4297 75 24.0457 75H50.9545C51.5704 75 52.0696 74.5009 52.0696 73.885C52.0696 70.8691 49.6423 68.4108 46.6391 68.3574V62.4488H70.1857C72.5124 62.4488 74.4052 60.5559 74.4052 58.2293V47.9544V15.1573C74.4051 12.8307 72.5122 10.9378 70.1857 10.9378ZM10.6656 46.8394H2.82505V15.1573C2.82505 14.0603 3.71743 13.1679 4.81445 13.1679H10.6656V46.8394ZM61.8073 16.2901H23.8227C23.2069 16.2901 22.7077 16.7892 22.7077 17.4051C22.7077 18.0211 23.2067 18.5202 23.8227 18.5202H61.8073V46.8394H12.8956V18.5202H18.0246C18.6404 18.5202 19.1396 18.0211 19.1396 17.4051C19.1396 16.7892 18.6405 16.2901 18.0246 16.2901H12.8956V3.35024C12.8956 2.73252 13.398 2.23008 14.0157 2.23008H60.6871C61.3048 2.23008 61.8073 2.73252 61.8073 3.35024V16.2901ZM30.591 62.4486H44.409V68.3547H30.591V62.4486ZM49.6457 72.7699H25.3545C25.8127 71.4971 27.0322 70.5848 28.4608 70.5848H29.4761H45.5241H46.5394C47.968 70.5848 49.1875 71.4971 49.6457 72.7699Z" fill="#D74427"/>
<path d="M38.098 51.2742C36.24 51.2742 34.7283 52.7859 34.7283 54.644C34.7283 56.502 36.24 58.0138 38.098 58.0138C39.9563 58.0138 41.4679 56.5022 41.4679 54.644C41.4679 52.7859 39.9562 51.2742 38.098 51.2742ZM38.098 55.7837C37.4697 55.7838 36.9583 55.2725 36.9583 54.644C36.9583 54.0155 37.4697 53.5042 38.098 53.5042C38.7266 53.5042 39.2378 54.0156 39.2378 54.644C39.2378 55.2725 38.7264 55.7837 38.098 55.7837Z" fill="#D74427"/>
<path d="M25.1023 11.5329L21.4323 5.17617C21.2331 4.8312 20.8651 4.61865 20.4667 4.61865C20.0683 4.61865 19.7003 4.8312 19.5011 5.17617L15.8311 11.5329C15.6318 11.8778 15.6318 12.3029 15.8311 12.6479C16.0303 12.9929 16.3982 13.2054 16.7967 13.2054H24.1369C24.5352 13.2054 24.9033 12.9929 25.1023 12.6479C25.3016 12.3029 25.3016 11.8778 25.1023 11.5329ZM18.7278 10.9755L20.4667 7.96377L22.2056 10.9755H18.7278Z" fill="#D74427"/>
<path d="M58.5214 22.6316H42.3731C41.7573 22.6316 41.2581 23.1307 41.2581 23.7466C41.2581 24.3625 41.7571 24.8617 42.3731 24.8617H58.5214C59.1372 24.8617 59.6364 24.3626 59.6364 23.7466C59.6364 23.1307 59.1372 22.6316 58.5214 22.6316Z" fill="#D74427"/>
<path d="M58.5214 27.5354H42.3731C41.7573 27.5354 41.2581 28.0345 41.2581 28.6504C41.2581 29.2664 41.7571 29.7655 42.3731 29.7655H58.5214C59.1372 29.7655 59.6364 29.2664 59.6364 28.6504C59.6364 28.0345 59.1372 27.5354 58.5214 27.5354Z" fill="#D74427"/>
<path d="M58.5214 32.4392H42.3731C41.7573 32.4392 41.2581 32.9383 41.2581 33.5542C41.2581 34.1701 41.7571 34.6693 42.3731 34.6693H58.5214C59.1372 34.6693 59.6364 34.1702 59.6364 33.5542C59.6364 32.9383 59.1372 32.4392 58.5214 32.4392Z" fill="#D74427"/>
<path d="M58.5214 37.3431H42.3731C41.7573 37.3431 41.2581 37.8422 41.2581 38.4582C41.2581 39.074 41.7571 39.5732 42.3731 39.5732H58.5214C59.1372 39.5732 59.6364 39.0741 59.6364 38.4582C59.6364 37.8422 59.1372 37.3431 58.5214 37.3431Z" fill="#D74427"/>
<path d="M49.9185 42.2469H42.3731C41.7573 42.2469 41.2581 42.746 41.2581 43.362C41.2581 43.9778 41.7571 44.477 42.3731 44.477H49.9185C50.5343 44.477 51.0335 43.978 51.0335 43.362C51.0335 42.746 50.5345 42.2469 49.9185 42.2469Z" fill="#D74427"/>
<path d="M37.3513 21.6921H16.7964C16.1806 21.6921 15.6814 22.1912 15.6814 22.8072V35.9543V43.362C15.6814 43.9778 16.1805 44.4771 16.7964 44.4771H37.3513C37.9671 44.4771 38.4663 43.978 38.4663 43.362V37.0623V22.8072C38.4663 22.1912 37.9671 21.6921 37.3513 21.6921ZM17.9116 23.9222H36.2362V35.5809C36.1114 35.5595 35.9866 35.5408 35.862 35.5269C33.9186 35.309 32.8012 36.0867 31.9029 36.7113C31.2287 37.1801 30.6464 37.585 29.6711 37.6641C28.0935 37.7936 27.082 36.9548 25.8007 35.8948C24.3744 34.7152 22.7566 33.3795 20.1852 33.5344C19.4141 33.5812 18.6542 33.7585 17.9116 34.0625V23.9222ZM36.2364 42.247H17.9115V36.5536C18.7025 36.0759 19.5105 35.8096 20.3204 35.7603C22.0142 35.6571 23.1104 36.5637 24.3793 37.6132C25.7816 38.7731 27.37 40.0866 29.8514 39.8868C31.4258 39.7591 32.3961 39.0844 33.176 38.5424C33.9758 37.9863 34.5049 37.6194 35.6141 37.743C35.8202 37.7662 36.0282 37.8048 36.2364 37.8589V42.247Z" fill="#D74427"/>
<path d="M30.0157 26.4128C28.1346 26.4128 26.6042 27.9432 26.6042 29.8243C26.6042 31.7053 28.1346 33.2358 30.0157 33.2358C31.8969 33.2358 33.4272 31.7055 33.4272 29.8243C33.4272 27.9432 31.8969 26.4128 30.0157 26.4128ZM30.0157 31.0059C29.3643 31.0059 28.8342 30.4757 28.8342 29.8243C28.8342 29.1728 29.3643 28.6428 30.0157 28.6428C30.6671 28.6428 31.1973 29.1729 31.1973 29.8243C31.1973 30.4757 30.6671 31.0059 30.0157 31.0059Z" fill="#D74427"/>
</g>
<defs>
<clipPath id="clip0_54_74">
<rect width="75" height="75" fill="white"/>
</clipPath>
</defs>
</svg>
